HIERARCHY
ROOT Hips
{
	OFFSET 51.878300 -35.530014 97.262894
	CHANNELS 6 Xposition Yposition Zposition Xrotation Yrotation Zrotation
	JOINT spine
	{
		OFFSET 0.000000 -0.458069 7.965683
		CHANNELS 3 Xrotation Yrotation Zrotation
		JOINT spine1
		{
			OFFSET 0.000000 -0.000004 10.243103
			CHANNELS 3 Xrotation Yrotation Zrotation
			JOINT spine2
			{
				OFFSET 0.000000 0.000000 9.814751
				CHANNELS 3 Xrotation Yrotation Zrotation
				JOINT Neck
				{
					OFFSET 0.000000 -1.201385 25.198616
					CHANNELS 3 Xrotation Yrotation Zrotation
					JOINT Head
					{
						OFFSET 0.000000 -0.000004 7.613144
						CHANNELS 3 Xrotation Yrotation Zrotation
						End Site
						{
							OFFSET 0.000000 6.077328 18.428101
						}
					}
				}
				JOINT RightShoulder
				{
					OFFSET -4.132702 0.575447 10.599205
					CHANNELS 3 Xrotation Yrotation Zrotation
					JOINT RightArm
					{
						OFFSET 0.000000 0.000000 13.901794
						CHANNELS 3 Xrotation Yrotation Zrotation
						JOINT RightArmRoll
						{
							OFFSET 0.000000 -0.000004 7.017883
							CHANNELS 3 Xrotation Yrotation Zrotation
							JOINT RightForeArm
							{
								OFFSET 0.000000 -0.000004 20.440598
								CHANNELS 3 Xrotation Yrotation Zrotation
								JOINT RightForeArmRoll
								{
									OFFSET 0.000000 0.000000 7.875153
									CHANNELS 3 Xrotation Yrotation Zrotation
									JOINT RightHand
									{
										OFFSET 0.000000 -0.000004 15.803696
										CHANNELS 3 Xrotation Yrotation Zrotation
										End Site
										{
											OFFSET 0.000000 0.000000 0.100006
										}
									}
								}
							}
						}
					}
				}
				JOINT LeftShoulder
				{
					OFFSET 4.132702 0.575447 10.599205
					CHANNELS 3 Xrotation Yrotation Zrotation
					JOINT LeftArm
					{
						OFFSET 0.000000 0.000000 13.901794
						CHANNELS 3 Xrotation Yrotation Zrotation
						JOINT LeftArmRoll
						{
							OFFSET 0.000000 -0.000004 7.017883
							CHANNELS 3 Xrotation Yrotation Zrotation
							JOINT LeftForeArm
							{
								OFFSET 0.000000 -0.000004 20.440598
								CHANNELS 3 Xrotation Yrotation Zrotation
								JOINT LeftForeArmRoll
								{
									OFFSET 0.000000 0.000000 7.875153
									CHANNELS 3 Xrotation Yrotation Zrotation
									JOINT LeftHand
									{
										OFFSET 0.000000 -0.000004 15.803696
										CHANNELS 3 Xrotation Yrotation Zrotation
										End Site
										{
											OFFSET 0.000000 0.000000 0.100006
										}
									}
								}
							}
						}
					}
				}
			}
		}
	}
	JOINT RightUpLeg
	{
		OFFSET -7.060482 1.086102 -1.294701
		CHANNELS 3 Xrotation Yrotation Zrotation
		JOINT RightUpLegRoll
		{
			OFFSET 0.000000 -0.000004 18.530800
			CHANNELS 3 Xrotation Yrotation Zrotation
			JOINT RightLeg
			{
				OFFSET 0.000000 0.000004 -22.947601
				CHANNELS 3 Xrotation Yrotation Zrotation
				JOINT RightLegRoll
				{
					OFFSET 0.000000 -0.000004 23.022598
					CHANNELS 3 Xrotation Yrotation Zrotation
					JOINT RightFoot
					{
						OFFSET 0.000000 -0.000004 19.162506
						CHANNELS 3 Xrotation Yrotation Zrotation
						JOINT RightToeBase
						{
							OFFSET 0.000000 0.000000 16.018799
							CHANNELS 3 Xrotation Yrotation Zrotation
							End Site
							{
								OFFSET 0.006790 0.894203 7.757828
							}
						}
					}
				}
			}
		}
	}
	JOINT LeftUpLeg
	{
		OFFSET 7.060482 1.086102 -1.294701
		CHANNELS 3 Xrotation Yrotation Zrotation
		JOINT LeftUpLegRoll
		{
			OFFSET 0.000000 -0.000004 18.530899
			CHANNELS 3 Xrotation Yrotation Zrotation
			JOINT LeftLeg
			{
				OFFSET 0.000000 -0.000004 22.947502
				CHANNELS 3 Xrotation Yrotation Zrotation
				JOINT LeftLegRoll
				{
					OFFSET 0.000000 -0.000004 23.235504
					CHANNELS 3 Xrotation Yrotation Zrotation
					JOINT LeftFoot
					{
						OFFSET 0.000000 -0.000004 18.949600
						CHANNELS 3 Xrotation Yrotation Zrotation
						JOINT LeftToeBase
						{
							OFFSET 0.000000 0.000000 16.018799
							CHANNELS 3 Xrotation Yrotation Zrotation
							End Site
							{
								OFFSET -0.030430 0.894203 7.757828
							}
						}
					}
				}
			}
		}
	}
}
MOTION
Frames: 11
Frame Time: 0.041667
52.588707 -16.127720 80.114281 16.544062 -0.891426 -1.712914 2.864644 -0.183701 -0.318052 9.731138 -0.386089 -0.624106 11.376177 -0.393539 -0.619439 -9.118573 13.475722 6.355928 34.138269 -4.901732 5.339095 -7.364451 -50.017202 -7.971188 -51.024464 -147.657270 -65.596816 0.000002 -0.000003 -0.000000 26.219197 -13.477421 1.739833 0.000009 0.000008 -2.999987 -5.000380 -7.999080 0.000097 -24.144514 56.823387 28.630558 116.278247 46.905989 -77.946973 -0.000000 0.000001 -0.000002 55.171738 19.705808 -7.953541 -0.000001 -0.000008 3.000021 -4.999765 7.999039 -0.000048 -67.095407 -174.825303 -1.713798 179.999991 -0.000005 -0.937002 114.986098 0.716549 -1.786764 -0.000002 0.000001 1.484500 74.710303 6.709595 2.236410 27.091262 -7.290001 2.378503 -68.374565 172.448616 0.858550 -0.000005 -0.000004 -0.874903 -61.159768 1.253195 2.412568 -0.000005 0.000002 -1.169770 68.597687 -6.966960 -1.969635 27.411694 7.268170 -2.837632 
52.591103 -16.210112 80.242477 16.412589 -0.880268 -1.725614 2.847662 -0.185195 -0.314256 9.697176 -0.388750 -0.616496 11.342280 -0.396108 -0.611795 -8.875887 13.503532 6.318669 34.037783 -4.874791 5.307426 -7.350191 -50.104144 -7.960879 -51.028108 -147.696338 -65.356325 0.000002 -0.000003 -0.000001 25.748328 -13.376120 1.673761 0.000009 0.000008 -2.999985 -5.000378 -7.999080 0.000094 -24.082822 56.848737 28.555687 116.445464 46.732824 -78.385491 -0.000000 -0.000000 -0.000000 54.527439 19.889670 -7.985274 0.000002 -0.000005 3.000021 -4.999768 7.999039 -0.000043 -66.727096 -174.816875 -1.698117 179.999991 -0.000005 -0.937998 115.230305 0.700903 -1.794864 -0.000002 0.000001 1.476950 74.686794 6.710173 2.235592 27.097189 -7.289575 2.387102 -68.010318 172.446895 0.852874 -0.000006 -0.000004 -0.876299 -60.921920 1.263210 2.408856 -0.000005 0.000002 -1.162470 68.587558 -6.966952 -1.969671 27.415027 7.268113 -2.840605 
52.603004 -16.282516 80.375687 16.279725 -0.868682 -1.738385 2.830925 -0.186882 -0.310411 9.663710 -0.391785 -0.608777 11.308786 -0.399050 -0.604041 -8.631424 13.531976 6.281831 33.937782 -4.847142 5.276268 -7.333982 -50.188391 -7.947920 -51.027479 -147.729410 -65.113573 0.000001 -0.000003 0.000000 25.290553 -13.269305 1.608911 0.000007 0.000006 -2.999990 -5.000377 -7.999081 0.000095 -24.019255 56.874002 28.478597 116.614388 46.560163 -78.828907 -0.000000 -0.000000 -0.000001 53.878506 20.069638 -8.011221 0.000001 -0.000006 3.000020 -4.999771 7.999036 -0.000046 -66.356749 -174.809403 -1.680936 179.999991 -0.000005 -0.938996 115.475604 0.685344 -1.802923 -0.000003 0.000001 1.469390 74.662765 6.710792 2.234708 27.103131 -7.289149 2.395692 -67.644274 172.444395 0.846899 -0.000007 -0.000005 -0.877725 -60.683362 1.272957 2.405085 -0.000006 0.000002 -1.155149 68.576896 -6.966941 -1.969640 27.418457 7.268061 -2.843611 
52.601807 -16.375917 80.516487 16.145454 -0.856705 -1.751259 2.814435 -0.188674 -0.306581 9.630731 -0.395026 -0.601084 11.275783 -0.402199 -0.596309 -8.385704 13.560051 6.245348 33.838758 -4.818481 5.245670 -7.316270 -50.271036 -7.932957 -51.024617 -147.755802 -64.871764 0.000001 -0.000003 0.000000 24.845192 -13.158176 1.545496 0.000008 0.000006 -2.999987 -5.000378 -7.999082 0.000096 -23.954307 56.899089 28.399949 116.785061 46.387964 -79.277022 -0.000000 -0.000001 -0.000000 53.225752 20.245598 -8.031194 -0.000000 -0.000006 3.000020 -4.999771 7.999038 -0.000052 -65.984566 -174.802450 -1.663785 179.999991 -0.000005 -0.940007 115.721873 0.670222 -1.810021 -0.000002 0.000001 1.461829 74.638176 6.711400 2.233759 27.109057 -7.288731 2.404248 -67.276434 172.441472 0.840165 -0.000006 -0.000004 -0.879173 -60.443896 1.282512 2.401296 -0.000005 0.000002 -1.147830 68.565735 -6.966966 -1.969550 27.421789 7.268012 -2.846578 
52.602608 -16.477222 80.664978 16.009987 -0.844378 -1.764269 2.798197 -0.190484 -0.302830 9.598267 -0.398307 -0.593549 11.243390 -0.405389 -0.588737 -8.139279 13.586845 6.209192 33.740687 -4.788533 5.215648 -7.297455 -50.353145 -7.916584 -51.019085 -147.777973 -64.629094 0.000002 -0.000003 -0.000001 24.411513 -13.043752 1.483559 0.000007 0.000006 -2.999989 -5.000380 -7.999081 0.000096 -23.889174 56.923961 28.321012 116.956430 46.216591 -79.728347 -0.000001 -0.000000 -0.000002 52.570139 20.417263 -8.045019 0.000002 -0.000006 3.000020 -4.999773 7.999039 -0.000046 -65.610661 -174.796480 -1.646342 179.999991 -0.000005 -0.941004 115.969317 0.655216 -1.817083 -0.000001 0.000001 1.454260 74.613178 6.712033 2.232836 27.114891 -7.288327 2.412692 -66.906887 172.438002 0.832845 -0.000006 -0.000003 -0.880634 -60.203412 1.291919 2.397497 -0.000005 0.000002 -1.140479 68.554028 -6.966988 -1.969592 27.425117 7.267956 -2.849477 
52.604309 -16.563614 80.796684 15.873518 -0.831741 -1.777458 2.782213 -0.192225 -0.299224 9.566311 -0.401459 -0.586308 11.211396 -0.408454 -0.581458 -7.892695 13.611633 6.173386 33.643948 -4.757001 5.186253 -7.277935 -50.435807 -7.899396 -51.012268 -147.795827 -64.387579 0.000002 -0.000003 -0.000001 23.988815 -12.927234 1.423233 0.000008 0.000009 -2.999991 -5.000378 -7.999083 0.000093 -23.824099 56.948447 28.242231 117.127513 46.046379 -80.181168 -0.000000 0.000001 -0.000003 51.912460 20.584238 -8.052447 -0.000000 -0.000007 3.000019 -4.999771 7.999041 -0.000047 -65.235246 -174.791467 -1.629188 179.999991 -0.000004 -0.942000 116.218128 0.640713 -1.824193 -0.000004 0.000001 1.446710 74.587646 6.712701 2.231852 27.120632 -7.287932 2.420977 -66.535974 172.433535 0.826168 -0.000001 -0.000004 -0.882097 -59.961739 1.301250 2.393714 -0.000005 0.000002 -1.133110 68.541809 -6.967009 -1.969665 27.428243 7.267911 -2.852249 
52.624603 -16.669319 80.965881 15.736049 -0.818830 -1.790870 2.766496 -0.193811 -0.295824 9.534863 -0.404312 -0.579494 11.179994 -0.411225 -0.574610 -7.646519 13.633404 6.137929 33.548653 -4.723607 5.157503 -7.258123 -50.520075 -7.882014 -51.004263 -147.811209 -64.146459 0.000002 -0.000003 -0.000000 23.576242 -12.809647 1.364493 0.000007 0.000008 -2.999992 -5.000378 -7.999082 0.000094 -23.759860 56.972520 28.164531 117.297352 45.877715 -80.634065 0.000001 -0.000000 0.000000 51.253582 20.746237 -8.053290 -0.000001 -0.000008 3.000019 -4.999774 7.999035 -0.000043 -64.858124 -174.787806 -1.611911 179.999991 -0.000006 -0.942999 116.468113 0.627207 -1.829498 -0.000002 0.000002 1.439160 74.561692 6.713392 2.230896 27.126158 -7.287557 2.429049 -66.163455 172.428768 0.818645 -0.000004 -0.000003 -0.883554 -59.718857 1.310552 2.389963 -0.000006 0.000002 -1.125710 68.529276 -6.967040 -1.969662 27.431174 7.267863 -2.854847 
52.625805 -16.758617 81.105286 15.597784 -0.805686 -1.804540 2.751029 -0.195151 -0.292698 9.503946 -0.406700 -0.573239 11.148995 -0.413539 -0.568326 -7.401274 13.651247 6.102835 33.455073 -4.688060 5.129445 -7.238411 -50.606842 -7.865010 -50.996549 -147.824049 -63.907737 0.000002 -0.000003 0.000000 23.173070 -12.692196 1.307409 0.000006 0.000007 -2.999990 -5.000378 -7.999081 0.000094 -23.697183 56.995825 28.088699 117.465989 45.710594 -81.086742 -0.000000 -0.000000 0.000000 50.594572 20.902956 -8.047575 -0.000004 -0.000007 3.000020 -4.999768 7.999039 -0.000045 -64.479650 -174.785989 -1.594201 179.999991 -0.000004 -0.943996 116.719668 0.614282 -1.834885 -0.000002 0.000001 1.431640 74.535532 6.714080 2.229853 27.131583 -7.287196 2.436885 -65.789530 172.423631 0.810585 -0.000002 -0.000004 -0.884996 -59.474664 1.319884 2.386259 -0.000006 0.000002 -1.118280 68.516121 -6.967097 -1.969703 27.433803 7.267816 -2.857217 
52.636608 -16.850422 81.237579 15.458818 -0.792347 -1.818494 2.735836 -0.196160 -0.289908 9.473554 -0.408453 -0.567675 11.118599 -0.415224 -0.562742 -7.157547 13.664352 6.068154 33.363500 -4.650064 5.102110 -7.219260 -50.697458 -7.849058 -50.990204 -147.834937 -63.672444 0.000002 -0.000003 0.000000 22.778631 -12.575880 1.251946 0.000008 0.000008 -2.999991 -5.000378 -7.999080 0.000093 -23.636952 57.018481 28.015797 117.631512 45.545774 -81.536626 -0.000001 -0.000000 0.000002 49.936172 21.053841 -8.034831 -0.000001 -0.000006 3.000022 -4.999767 7.999040 -0.000045 -64.099891 -174.785579 -1.577432 179.999991 -0.000006 -0.945006 116.972686 0.601986 -1.839359 -0.000002 0.000002 1.424140 74.508956 6.714817 2.228940 27.136820 -7.286861 2.444398 -65.414429 172.417648 0.803080 -0.000003 -0.000004 -0.886413 -59.228976 1.329308 2.382624 -0.000005 0.000002 -1.110800 68.502624 -6.967131 -1.969760 27.436119 7.267774 -2.859324 
52.634903 -16.943012 81.375679 15.319252 -0.778849 -1.832787 2.720916 -0.196750 -0.287519 9.443715 -0.409402 -0.562934 11.088798 -0.416117 -0.557990 -6.915905 13.671792 6.033944 33.274025 -4.609352 5.075526 -7.201059 -50.792845 -7.834728 -50.985245 -147.845701 -63.439835 0.000002 -0.000003 -0.000001 22.392090 -12.461993 1.198118 0.000008 0.000010 -2.999989 -5.000379 -7.999081 0.000094 -23.579404 57.040262 27.946216 117.794084 45.383370 -81.983430 -0.000002 -0.000000 -0.000001 49.279289 21.198689 -8.015235 -0.000004 -0.000005 3.000020 -4.999768 7.999039 -0.000044 -63.718965 -174.787054 -1.561176 179.999991 -0.000005 -0.946004 117.227288 0.591187 -1.842176 -0.000002 0.000001 1.416660 74.482079 6.715588 2.227950 27.141847 -7.286535 2.451555 -65.038243 172.411159 0.795615 -0.000006 -0.000004 -0.887796 -58.981805 1.338886 2.379084 -0.000006 0.000002 -1.103290 68.488629 -6.967195 -1.969954 27.438031 7.267727 -2.861111 
52.623306 -16.993916 81.478279 15.179385 -0.765233 -1.847453 2.706264 -0.196833 -0.285593 9.414425 -0.409378 -0.559151 11.059494 -0.416047 -0.554207 -6.676894 13.672671 6.000276 33.187141 -4.565620 5.049761 -7.184235 -50.894052 -7.822647 -50.983240 -147.856301 -63.211809 0.000002 -0.000003 0.000001 22.012673 -12.351648 1.145878 0.000009 0.000007 -2.999986 -5.000381 -7.999080 0.000096 -23.525530 57.061163 27.881092 117.951739 45.224083 -82.424414 -0.000001 -0.000001 0.000005 48.624998 21.336941 -7.988441 -0.000001 -0.000008 3.000019 -4.999771 7.999038 -0.000043 -63.336904 -174.790442 -1.545938 179.999991 -0.000005 -0.947000 117.483543 0.581567 -1.843223 -0.000002 0.000002 1.409230 74.454991 6.716377 2.227080 27.146479 -7.286248 2.458288 -64.660882 172.404042 0.788337 -0.000002 -0.000004 -0.889136 -58.732824 1.348676 2.375634 -0.000006 0.000002 -1.095720 68.474306 -6.967233 -1.970065 27.439348 7.267688 -2.862507 
